<svg xmlns="http://www.w3.org/2000/svg" version="1.1" xmlns:xlink="http://www.w3.org/1999/xlink" xmlns:svgjs="http://svgjs.com/svgjs" width="1920" height="1080" preserveAspectRatio="none" viewBox="0 0 1920 1080"><g mask="url(&quot;#SvgjsMask1010&quot;)" fill="none"><rect width="1920" height="1080" x="0" y="0" fill="rgba(120, 149, 178, 1)"></rect><path d="M 0,280 C 76.8,260.2 230.4,143 384,181 C 537.6,219 614.4,479.4 768,470 C 921.6,460.6 998.4,168.6 1152,134 C 1305.6,99.4 1382.4,318.6 1536,297 C 1689.6,275.4 1843.2,80.2 1920,26L1920 1080L0 1080z" fill="rgba(232, 223, 202, 1)"></path><path d="M 0,990 C 128,942 384,734.4 640,750 C 896,765.6 1024,1101 1280,1068 C 1536,1035 1792,681.6 1920,585L1920 1080L0 1080z" fill="rgba(174, 189, 202, 1)"></path></g><defs><mask id="SvgjsMask1010"><rect width="1920" height="1080" fill="#ffffff"></rect></mask></defs></svg>